# xmcd
#
# Track frame offsets:
#	150
#	12410
#	31883
#	45344
#	65622
#	88150
#	101661
#	123322
#	140037
#	150708
#	167734
#
# Disc length: 2376 seconds
#
# Revision: 0
# Processed by: cddbd v1.5.1PL0 Copyright (c) Steve Scherf et al.
# Submitted via: dBpowerAMP V4.0
#
DISCID=8f09460b
DTITLE=Matt Skinner - Four Winds
DYEAR=2005
DGENRE=Country
TTITLE0=14 Karat Gold
TTITLE1=Blue Bird
TTITLE2=Love Me No More
TTITLE3=Four Winds
TTITLE4=Leavin' Town
TTITLE5=Texas Blues
TTITLE6=Paying the Fiddler
TTITLE7=Can't You See?
TTITLE8=Payday Rolls Around
TTITLE9=Downbound Train
TTITLE10=Key to Your Heart
EXTD=Four Winds
EXTT0=
EXTT1=
EXTT2=
EXTT3=
EXTT4=
EXTT5=
EXTT6=
EXTT7=
EXTT8=
EXTT9=
EXTT10=
PLAYORDER=
